<?xml version="1.0" encoding="utf-8"?>
<!-- Svg Vector Icons : http://www.onlinewebfonts.com/icon -->
<!DOCTYPE svg PUBLIC "-//W3C//DTD SVG 1.1//EN" "http://www.w3.org/Graphics/SVG/1.1/DTD/svg11.dtd">
<svg version="1.1" xmlns="http://www.w3.org/2000/svg" xmlns:xlink="http://www.w3.org/1999/xlink" x="0px" y="0px" viewBox="0 0 1000 1000" enable-background="new 0 0 1000 1000" xml:space="preserve">
<metadata> Svg Vector Icons : http://www.onlinewebfonts.com/icon </metadata>
<g><path d="M213.4,433.2c38.4,0,69.7-31.4,69.7-69.8c0-38.4-31.3-69.7-69.7-69.7c-38.4,0-69.7,31.2-69.7,69.7C143.6,401.8,174.9,433.2,213.4,433.2z M213.4,327.3c19.9,0,36.1,16.2,36.1,36.1c0,20-16.2,36.1-36.1,36.1c-20,0-36.2-16.2-36.2-36.1C177.2,343.5,193.4,327.3,213.4,327.3z"/><path d="M10,165.9v668.2h980V165.9H10z M88.3,789.5l216.3-216.4l216.4,216.4H88.3z M945.5,789.5h-362L422,630.4l221.4-220.1l302,303.2V789.5z M945.5,650.5L643.6,348.6l-252.9,253l-86.1-86.1l-250,250V299.5l0,0v-89.1h890.9V650.5z"/></g>
</svg>